<svg width="144" height="170" viewBox="0 0 144 170" fill="none" xmlns="http://www.w3.org/2000/svg">
<g opacity="0.6">
<path d="M122.742 57.5L117.865 67.611" stroke="#FF67B0" stroke-width="3" stroke-linecap="round"/>
<path d="M142.312 80.4297L131.793 84.3486" stroke="#FF67B0" stroke-width="3" stroke-linecap="round"/>
<path d="M138.125 63.1719L126.321 73.7888" stroke="#FF67B0" stroke-width="3" stroke-linecap="round"/>
<path d="M57.1942 15.6403C40.2528 20.1798 30.2062 37.6202 34.7546 54.5948L35.188 56.2124L14.1998 61.8362C11.5249 62.5529 9.93856 65.3067 10.6567 67.9869C11.3749 70.667 14.1255 72.2587 16.8005 71.542L120.127 43.8557C122.802 43.139 124.388 40.3852 123.67 37.705C122.952 35.0248 120.201 33.4332 117.526 34.1499L96.5381 39.7737L96.1046 38.156C91.5563 21.1815 74.1355 11.1009 57.1942 15.6403Z" fill="#FF9ACA"/>
<path fill-rule="evenodd" clip-rule="evenodd" d="M113.002 120.36L114.756 107.732C115.296 103.847 115.789 100.295 116.227 97.0371C117.129 90.3416 117.579 86.9939 115.581 84.704C113.583 82.4141 110.149 82.4141 103.282 82.4141H39.086C32.2183 82.4141 28.7844 82.4141 26.7865 84.704C24.7886 86.9939 25.2392 90.3416 26.1403 97.0371C26.5789 100.296 27.0719 103.846 27.6117 107.732L29.3657 120.36C31.2719 134.083 32.225 140.946 34.2459 146.457C38.025 156.763 44.5575 164.439 52.3546 167.735C56.5241 169.498 61.4107 169.498 71.1839 169.498C80.957 169.498 85.8437 169.498 90.0132 167.735C97.8103 164.439 104.343 156.763 108.122 146.457C110.143 140.946 111.096 134.084 113.002 120.36ZM62.8267 95.8117C62.8267 93.0369 60.5817 90.7876 57.8124 90.7876C55.0431 90.7876 52.7981 93.0369 52.7981 95.8117V149.402C52.7981 152.177 55.0431 154.426 57.8124 154.426C60.5817 154.426 62.8267 152.177 62.8267 149.402V95.8117ZM89.5695 95.8117C89.5695 93.0369 87.3246 90.7876 84.5552 90.7876C81.7859 90.7876 79.541 93.0369 79.541 95.8117V149.402C79.541 152.177 81.7859 154.426 84.5552 154.426C87.3246 154.426 89.5695 152.177 89.5695 149.402V95.8117Z" fill="#FFB3D7"/>
<path fill-rule="evenodd" clip-rule="evenodd" d="M57.6875 89.5C60.7251 89.5 63.1875 91.9624 63.1875 95V150C63.1875 153.038 60.7251 155.5 57.6875 155.5C54.6499 155.5 52.1875 153.038 52.1875 150V95C52.1875 91.9624 54.6499 89.5 57.6875 89.5Z" fill="#FF67B0"/>
<path fill-rule="evenodd" clip-rule="evenodd" d="M84.6875 89.5C87.7251 89.5 90.1875 91.9624 90.1875 95V150C90.1875 153.038 87.7251 155.5 84.6875 155.5C81.6499 155.5 79.1875 153.038 79.1875 150V95C79.1875 91.9624 81.6499 89.5 84.6875 89.5Z" fill="#FF67B0"/>
<path fill-rule="evenodd" clip-rule="evenodd" d="M124.5 37.0715C125.289 40.0046 123.552 43.0226 120.619 43.8123L16.6187 71.8123C13.6856 72.6019 10.6677 70.8643 9.87798 67.9312C9.0883 64.9981 10.8259 61.9802 13.759 61.1905L117.759 33.1905C120.692 32.4008 123.71 34.1384 124.5 37.0715Z" fill="#FF67B0"/>
</g>
</svg>
